<?xml version="1.0" encoding="utf-8"?>
<!-- Generator: Adobe Illustrator 21.0.0, SVG Export Plug-In . SVG Version: 6.00 Build 0)  -->
<svg version="1.1" id="Layer_1" xmlns="http://www.w3.org/2000/svg" xmlns:xlink="http://www.w3.org/1999/xlink" x="0px" y="0px"
	 viewBox="0 0 600 200" style="enable-background:new 0 0 600 200;" xml:space="preserve">
<style type="text/css">
	.st0{fill:#8A1AE2;}
</style>
<g>
	<path class="st0" d="M177.1,66.5v29.8h-41.8V66.5h-7.1v66.8h7.1v-30.8h41.8v30.8h7V66.5H177.1z"/>
	<path class="st0" d="M269.5,66.5L240.7,116l-29-49.5h-5.8v66.8h6.8V80.1l26.3,44.7h3.3l26.3-45v53.5h6.8V66.5H269.5z"/>
	<path class="st0" d="M424,82.6c-3-5.1-7.2-9-12.6-11.8c-5.4-2.8-11.6-4.3-18.7-4.3h-27.2v66.8h27.2c7.1,0,13.3-1.4,18.7-4.3
		c5.4-2.8,9.6-6.8,12.6-11.8s4.5-10.8,4.5-17.3C428.5,93.4,427,87.6,424,82.6z M417.9,114.1c-2.4,4.1-5.8,7.3-10.2,9.6
		c-4.4,2.3-9.5,3.5-15.4,3.5h-19.8V72.6h19.8c5.8,0,11,1.2,15.4,3.5c4.4,2.3,7.8,5.5,10.2,9.7c2.4,4.1,3.6,8.8,3.6,14.2
		C421.5,105.3,420.3,110,417.9,114.1z"/>
	<g>
		<path class="st0" d="M84.8,66.7h-7l-29.6,66.8h7.2l25.8-58l25.6,58h7.6L84.8,66.7z"/>
	</g>
	<g>
		<path class="st0" d="M323.9,66.7h-7l-29.6,66.8h7.2l25.8-58l25.6,58h7.6L323.9,66.7z"/>
	</g>
	<g>
		<polygon class="st0" points="551.8,66.8 542,89.2 522.6,133 522.3,133.5 515.2,133.5 515.2,133.5 489.6,75.5 463.8,133.5 
			456.7,133.5 486.3,66.7 493.2,66.7 519,124.9 544.8,66.7 551.7,66.7 		"/>
	</g>
	<g>
		<path class="st0" d="M515.2,133.5L515.2,133.5L515.2,133.5L515.2,133.5z"/>
	</g>
</g>
</svg>
